<svg xmlns="http://www.w3.org/2000/svg" xmlns:xlink="http://www.w3.org/1999/xlink" width="524" height="154.589" viewBox="0 0 524 154.589"><defs><clipPath id="b"><rect width="524" height="154.589"/></clipPath></defs><g id="a" clip-path="url(#b)"><g transform="translate(-28.634 -342.348)"><path d="M112.4,403.586v-20.27h-.162a53.963,53.963,0,0,0-1.625,7.19,32.039,32.039,0,0,0-.284,7.393,21.523,21.523,0,0,0-1.016-2.4c-.934-1.666-1.909-3.25-2.925-4.875a20.575,20.575,0,0,1-3.047-6.215,11.506,11.506,0,0,1-.244-4.712,6.711,6.711,0,0,1,3.575-4.875,10.968,10.968,0,0,1,11.252.244c2.722,1.625,3.534,4.184,3.331,7.19-.244,3.087-1.665,5.646-3.29,8.165-1.016,1.544-1.99,3.087-2.884,4.712a26.452,26.452,0,0,0-2.234,7.474,7.871,7.871,0,0,0-.163.975Z" fill="#9e9e2b"/><path d="M110.652,412.767a3.521,3.521,0,0,1-.366-.406,6.887,6.887,0,0,1-2.031-4.834A2.2,2.2,0,0,0,107,405.455c-1.016-.528-2.072-.934-3.128-1.381-1.137-.447-2.315-.812-3.453-1.341a3.4,3.4,0,0,1-1.99-2.4,2.4,2.4,0,0,1,.366-2.031c.284-.406.609-.731.934-1.137a1.377,1.377,0,0,0,.081-1.869,4.357,4.357,0,0,0-1.95-1.584q-2.865-1.1-5.728-2.072a6.7,6.7,0,0,1-4.428-4.306,2.68,2.68,0,0,1,1.016-3.128,5.975,5.975,0,0,1,1.544-.731,13.866,13.866,0,0,1,5.768-.528,8.737,8.737,0,0,1,5.525,3.372,25.907,25.907,0,0,1,3.981,6.581,70.352,70.352,0,0,1,4.265,13.974c.366,1.869.65,3.737.975,5.606v.2C110.733,412.727,110.692,412.767,110.652,412.767Z" fill="#9e9e2b"/><path d="M113.13,412.808c.122-.894.244-1.706.366-2.478a83.823,83.823,0,0,1,3.047-12.512,36.209,36.209,0,0,1,5.2-10.684,11.888,11.888,0,0,1,4.022-3.493,9.9,9.9,0,0,1,5.525-.65,9.043,9.043,0,0,1,3.412.894,2.654,2.654,0,0,1,1.666,2.356,4.414,4.414,0,0,1-.447,1.909,6.793,6.793,0,0,1-4.225,3.534c-1.747.569-3.453,1.137-5.159,1.828a8.05,8.05,0,0,0-2.112,1.422,1.546,1.546,0,0,0-.341,2.16,1.517,1.517,0,0,0,.26.277,2,2,0,0,0,.284.325,2.933,2.933,0,0,1-.487,4.631,11.455,11.455,0,0,1-3.737,1.666,26.436,26.436,0,0,0-3.128,1.219,2.932,2.932,0,0,0-1.665,2.844A6.71,6.71,0,0,1,113.13,412.808Z" fill="#9e9e2b"/><path d="M104.193,461.676c2.8-3.981,7.393-12.268,5.362-22.423-.081-.447-.2-.894-.325-1.341-.487-2.112-2.437-12.918,2.722-22.789a21.174,21.174,0,0,0-5.687.569c-4.875,1.137-9.587,2.64-13.69,5.565a18.084,18.084,0,0,0-8,15.639c0,.244.041.609.041,1.016A22.953,22.953,0,0,0,87.744,448.8a25.879,25.879,0,0,0,9.709,9.14c2.153,1.259,4.347,2.4,6.54,3.575A.7.7,0,0,0,104.193,461.676Z" fill="#91234e"/><path d="M134.009,424.789A23.992,23.992,0,0,0,123.65,417.8a49.271,49.271,0,0,0-8.084-2.315c-2.356,3.981-4.428,10.48-2.722,20.148,0,0,2.356,15.314-4.753,26.932a4.407,4.407,0,0,0-.244.447h.041c-1.016,2.234-4.712,12.552,9.465,17.3,0,0-7.068-7.109-1.584-15.233a15.351,15.351,0,0,1,5.687-5c1.3-.691,2.6-1.422,3.9-2.153a25.551,25.551,0,0,0,9.952-9.546,24.117,24.117,0,0,0,2.884-10.318A18.349,18.349,0,0,0,134.009,424.789Z" fill="#4b0f2c"/><path d="M83.354,431.535a4.5,4.5,0,0,0-.081.487c-.041.325-.122.772-.2,1.341s-.122,1.259-.2,2.072c-.041.812-.041,1.706-.041,2.64a28.742,28.742,0,0,0,.284,3.087,20.555,20.555,0,0,0,.772,3.331,21.382,21.382,0,0,0,1.339,3.372c.244.569.609,1.1.894,1.666.162.284.325.528.487.812a8.478,8.478,0,0,0,.528.772l.569.772a2.1,2.1,0,0,0,.284.366l.284.366.609.731a9.361,9.361,0,0,0,.65.691c.2.244.447.447.65.691l.65.65c.2.2.447.406.65.65.244.2.447.406.691.609.447.406.894.772,1.381,1.137a10.712,10.712,0,0,0,1.373,1.014c.447.325.894.609,1.341.934.122.081.2.162.325.244s.2.122.325.2c.2.122.447.284.65.406.406.244.812.528,1.178.772.406.244.772.447,1.1.65.366.2.691.406.975.569.325.162.569.325.853.447.528.284.894.528,1.178.65.284.162.406.244.406.244s-.162-.041-.447-.122-.731-.2-1.3-.366c-.284-.081-.609-.162-.934-.284s-.691-.244-1.1-.406c-.366-.122-.812-.284-1.219-.447-.447-.162-.853-.366-1.341-.569-.244-.122-.447-.2-.691-.325-.122-.041-.244-.122-.366-.162-.122-.081-.244-.122-.366-.2-.487-.244-.975-.528-1.5-.812-.244-.122-.487-.284-.772-.447-.244-.162-.528-.325-.772-.487a17.783,17.783,0,0,1-1.544-1.1c-.244-.2-.528-.366-.772-.569s-.487-.447-.731-.65-.487-.447-.772-.65l-.731-.731-.731-.731c-.244-.244-.447-.528-.691-.772l-.325-.406c-.122-.122-.2-.284-.325-.406l-.609-.853c-.2-.284-.366-.569-.569-.894-.162-.284-.366-.569-.528-.894s-.325-.609-.487-.934c-.081-.162-.162-.284-.244-.447l-.2-.487c-.122-.325-.284-.609-.406-.934a8.774,8.774,0,0,1-.325-.975,8.432,8.432,0,0,1-.284-.975c-.081-.325-.162-.65-.244-.934a24.425,24.425,0,0,1-.528-3.7,29.385,29.385,0,0,1,.081-3.331,20.612,20.612,0,0,1,.487-2.722,18.019,18.019,0,0,1,.609-2.031c.2-.569.406-.975.528-1.259Z" fill="#91234e"/><path d="M131.287,424.832c14.38,19.377-6.743,30.67-6.743,30.67C136.365,443.232,131.287,424.832,131.287,424.832Z" fill="#91234e"/><path d="M111.5,360.812a57.525,57.525,0,0,0-6.175,114.716c-.284-.487-.528-.975-.772-1.462a14.148,14.148,0,0,1-.974-7.754,6.753,6.753,0,0,1-.894-.162h-.162v-.041a48.581,48.581,0,1,1,16.289.284c-.122.162-.244.366-.366.528a8.071,8.071,0,0,0-.528,8.571,57.515,57.515,0,0,0-6.418-114.68Z" fill="#4b0f2c"/></g><g transform="translate(-28.634 -342.348)" style="isolation:isolate"><g style="isolation:isolate"><path d="M186.086,453.349V386.833h24.1q13.063,0,19.389,4.484t6.325,12.949a14.781,14.781,0,0,1-2.529,8.625q-2.53,3.658-9.017,6.371a20.708,20.708,0,0,1,6.762,2.852,14.128,14.128,0,0,1,3.956,3.98,13.962,13.962,0,0,1,1.887,4.553,22.346,22.346,0,0,1,.506,4.669q0,9.2-6.256,13.617t-19.918,4.416Zm13.386-39.009h12.834a16.15,16.15,0,0,0,3.978-.483,10.688,10.688,0,0,0,3.4-1.495,7.409,7.409,0,0,0,2.37-2.6,7.657,7.657,0,0,0,.874-3.749,7.448,7.448,0,0,0-3.244-6.555,14.339,14.339,0,0,0-8.3-2.231H199.472Zm0,28.612h12.1q6.072,0,9.177-2.437a8.576,8.576,0,0,0,1.588-11.477,9.246,9.246,0,0,0-4.117-3.014,16.236,16.236,0,0,0-5.911-1.011H199.472Z" fill="#5e193b"/><path d="M259.04,432.648a14.993,14.993,0,0,0,1.149,6.326,9.179,9.179,0,0,0,3.474,4.139,10.019,10.019,0,0,0,5.5,1.45,12.069,12.069,0,0,0,6.049-1.472,7.86,7.86,0,0,0,3.61-4.83h12.1a16.3,16.3,0,0,1-4.025,8.647,21.326,21.326,0,0,1-7.843,5.475,26.4,26.4,0,0,1-21.965-1.081,20.962,20.962,0,0,1-8.35-8.4,26.1,26.1,0,0,1-2.989-12.788,29.648,29.648,0,0,1,2.714-12.857,21.485,21.485,0,0,1,7.889-9.062,22.478,22.478,0,0,1,12.443-3.335,22.81,22.81,0,0,1,12.213,3.059,19.2,19.2,0,0,1,7.452,8.51,29.827,29.827,0,0,1,2.507,12.582v3.633Zm-.046-8H278.4a12.828,12.828,0,0,0-1.057-5.245,8.454,8.454,0,0,0-3.2-3.772,9.7,9.7,0,0,0-5.358-1.379,9.184,9.184,0,0,0-5.313,1.494,9.738,9.738,0,0,0-3.335,3.887A11.43,11.43,0,0,0,258.994,424.645Z" fill="#5e193b"/><path d="M311.342,432.648a14.978,14.978,0,0,0,1.149,6.326,9.173,9.173,0,0,0,3.474,4.139,10.014,10.014,0,0,0,5.5,1.45,12.072,12.072,0,0,0,6.049-1.472,7.864,7.864,0,0,0,3.61-4.83h12.1a16.308,16.308,0,0,1-4.026,8.647,21.314,21.314,0,0,1-7.842,5.475,26.4,26.4,0,0,1-21.965-1.081,20.949,20.949,0,0,1-8.35-8.4,26.1,26.1,0,0,1-2.989-12.788,29.648,29.648,0,0,1,2.714-12.857,21.483,21.483,0,0,1,7.888-9.062,22.484,22.484,0,0,1,12.444-3.335,22.812,22.812,0,0,1,12.213,3.059,19.2,19.2,0,0,1,7.452,8.51,29.827,29.827,0,0,1,2.507,12.582v3.633Zm-.046-8h19.411a12.828,12.828,0,0,0-1.058-5.245,8.451,8.451,0,0,0-3.2-3.772,9.7,9.7,0,0,0-5.358-1.379,9.187,9.187,0,0,0-5.314,1.494,9.754,9.754,0,0,0-3.335,3.887A11.443,11.443,0,0,0,311.3,424.645Z" fill="#5e193b"/><path d="M380.112,415.123h-10.58l.092,25.346a5.9,5.9,0,0,0,.438,2.6,2.084,2.084,0,0,0,1.379,1.105,9.526,9.526,0,0,0,2.415.253h6.394v8.28a13.752,13.752,0,0,1-2.875.781,31.187,31.187,0,0,1-5.451.368q-6.257,0-9.683-1.609a9.324,9.324,0,0,1-4.761-4.509,15.892,15.892,0,0,1-1.334-6.715v-25.9h-7.728v-9.339h8.188l3.358-14.352h9.568v14.306h10.58Z" fill="#5e193b"/></g><g style="isolation:isolate"><path d="M391.7,386.833h45.264l-.046,11.223H405.227v16.7h27.461v10.995H405.227v27.6H391.7Z" fill="#b1ac3c"/><path d="M460.1,386.878v12.1H447.04v-12.1Zm-.138,18.906v47.565H447.132V405.784Z" fill="#b1ac3c"/><path d="M468.154,398.792V386.833h53.222v11.959H501.734v54.557H488.256V398.792Z" fill="#b1ac3c"/></g></g></g></svg>